<svg width="70" height="21" viewBox="0 0 70 21" fill="none" xmlns="http://www.w3.org/2000/svg">
<g id="&#235;&#161;&#156;&#234;&#179;&#160;2" clip-path="url(#clip0_566_178320)">
<path id="Vector" d="M4.78735 2.10316H0V0.419434H11.6306V2.10316H6.8185V15.9748H4.78735V2.10316Z" fill="#1C1C1E"/>
<path id="Vector_2" d="M8.64654 10.2126C8.64654 6.46647 11.2339 4.16553 13.9181 4.16553C16.9164 4.16553 18.6334 6.25224 18.6334 9.57222C18.6334 9.99952 18.6098 10.355 18.5365 10.7337H10.6293C10.7981 13.1053 12.2731 14.6697 14.4979 14.6697C15.6339 14.6697 16.6259 14.3617 17.4478 13.8163L18.1492 15.0727C17.1336 15.7837 15.876 16.2585 14.2558 16.2585C11.1122 16.2585 8.64536 14.0294 8.64536 10.2114L8.64654 10.2126ZM16.8443 9.21671C16.8443 6.94009 15.7567 5.73114 13.9665 5.73114C12.3227 5.73114 10.8713 7.01189 10.6293 9.21671H16.8431H16.8443Z" fill="#1C1C1E"/>
<path id="Vector_3" d="M22.5787 9.95087L19.0242 4.44922H21.2006L22.7724 6.96323C23.1349 7.60361 23.5223 8.24398 23.9084 8.88435H24.0053C24.3678 8.24398 24.7067 7.60361 25.0692 6.96323L26.4958 4.44922H28.5989L25.0444 10.1639L28.8646 15.9736H26.6883L24.9712 13.294C24.5603 12.6062 24.1245 11.8951 23.69 11.2305H23.5931C23.2058 11.894 22.8196 12.6062 22.4087 13.294L20.8369 15.9736H18.7337L22.5787 9.95087Z" fill="#1C1C1E"/>
<path id="Vector_4" d="M31.0729 12.393V6.03791H29.3323V4.56725L31.1698 4.44913L31.4118 0.750488H33.0804V4.44913H36.2724V6.03791H33.0804V12.4405C33.0804 13.8393 33.5646 14.6453 34.8943 14.6453C35.33 14.6453 35.7646 14.5747 36.2488 14.3604L36.6597 15.7593C36.0315 16.0442 35.2332 16.2572 34.4349 16.2572C31.9196 16.2572 31.0741 14.6916 31.0741 12.3918L31.0729 12.393Z" fill="#1C1C1E"/>
<path id="Vector_5" d="M43.1204 0.000181436H48.5525L48.5041 0.380005L47.8759 0.450643C46.8119 0.568759 46.5462 0.9729 46.3277 2.63231L45.7231 7.2562H53.7024L54.3071 2.67979C54.3791 2.22933 54.4039 1.87382 54.4039 1.61212C54.4039 0.734352 53.9681 0.498121 53.1226 0.426325L52.1755 0.356845L52.6396 -0.000976562H58.3953L58.3469 0.378847L57.7187 0.449485C56.6547 0.544441 56.4126 0.971742 56.1953 2.63115L54.744 13.4909C54.6956 13.9413 54.6719 14.2494 54.6719 14.5111C54.6719 15.2695 55.0593 15.4363 55.7844 15.5069L56.5354 15.9574H50.6817L50.7301 15.5776L51.2863 15.5069C52.5192 15.3413 52.6644 15.009 52.8581 13.4909L53.608 8.06101H45.6286L44.8788 13.4909C44.8304 13.9413 44.7819 14.2494 44.7819 14.5111C44.7819 15.2695 45.1209 15.4363 45.8459 15.5069L46.571 15.5776L46.5226 15.9574H40.8153L40.8637 15.5776L41.3479 15.5069C42.5807 15.3888 42.7508 15.009 42.9681 13.4909L44.443 2.67863C44.5151 2.22817 44.5151 1.87266 44.5151 1.61096C44.5151 0.733194 44.1525 0.496963 43.2822 0.425167L42.863 0.396217" fill="#1C1C1E"/>
<path id="Vector_6" d="M58.4213 12.9313C58.3729 13.2393 58.3009 13.904 58.3009 14.2121C58.3009 14.6868 58.5111 14.9926 58.8972 14.9926C59.2113 14.9926 58.0529 15.8715 57.3278 15.8715C56.748 15.8715 56.5106 15.8008 56.5106 14.9231C56.5106 14.3302 56.6559 13.9978 57.7199 7.12164C57.7435 6.97921 57.7435 6.83678 57.7435 6.71866C57.7435 6.2682 57.5746 5.96017 56.97 5.88838L56.3902 5.81774L56.487 5.43791L59.6305 4.48951L59.751 4.65511L58.4213 12.9302V12.9313ZM58.948 3.78198C58.3434 3.78198 57.8356 3.28404 57.8356 2.66798C57.8356 2.05193 58.3434 1.57715 58.948 1.57715C59.5526 1.57715 60.0604 2.05193 60.0604 2.66798C60.0604 3.28404 59.5526 3.78198 58.948 3.78198Z" fill="#1C1C1E"/>
<path id="Vector_7" d="M63.4956 16.101C63.0114 16.101 62.4316 16.0061 61.755 15.8405L61.4645 18.2827C61.416 18.5432 61.3676 19.0412 61.3676 19.1361C61.3676 19.6341 61.6097 19.7765 62.2143 19.8946L63.1095 20.0602L63.0374 20.4157H58.491L58.5394 20.1308L58.9751 20.0127C59.6282 19.8471 59.7002 19.5379 59.8218 18.7563L61.6841 6.85324C61.7077 6.73512 61.7077 6.66332 61.7077 6.59269C61.7077 6.14223 61.5141 5.92915 61.1999 5.90484L60.2328 5.80988L60.3544 5.4069L63.4732 4.48166L63.5936 4.67157L62.5296 10.1257L62.6265 10.1489C64.4639 5.69061 66.6887 4.4585 68.0917 4.4585C69.0588 4.4585 70.0023 5.4069 70.0023 7.37549C70.0023 11.8338 66.8824 16.101 63.498 16.101H63.4956ZM66.9049 5.83304C65.9377 5.83304 64.6564 7.46929 64.0034 8.51265C63.0599 10.0308 62.3832 11.6427 61.9475 14.7253C62.7209 14.9152 63.374 15.0333 63.9786 15.0333C66.0345 15.0333 66.8801 14.2031 67.6063 12.2356C67.9936 11.1923 68.4046 9.34293 68.4046 8.03903C68.4046 6.16539 67.4374 5.8342 66.9049 5.8342V5.83304Z" fill="#1C1C1E"/>
<path id="Vector_8" d="M55.7844 15.5081C55.7844 15.5081 60.5635 16.4322 62.6253 10.1489L63.0599 10.3122C63.0599 10.3122 61.5212 15.9632 56.5342 15.9586C56.5342 15.9586 55.7324 15.4838 55.7844 15.5081Z" fill="#1C1C1E"/>
</g>
<defs>
<clipPath id="clip0_566_178320">
<rect width="70" height="20.4167" fill="white"/>
</clipPath>
</defs>
</svg>
